<svg width="24" height="24" viewBox="0 0 24 24" fill="none" xmlns="http://www.w3.org/2000/svg">
<g clip-path="url(#clip0_2688_3551)">
<path d="M22.4837 22.4837H12C7.05787 22.4837 4.58691 22.4837 3.05156 20.9483C1.51631 19.4132 1.51631 16.942 1.51631 12V1.51631" stroke="black" stroke-width="1.5" stroke-linecap="round"/>
<path d="M19.3388 15.1452L16.0699 11.0288C15.5692 10.3983 15.3188 10.083 15.0315 9.92933C14.5895 9.6931 14.0614 9.6816 13.6097 9.89838C13.3158 10.0394 13.0521 10.3434 12.5244 10.9516C11.9967 11.5597 11.7329 11.8638 11.439 12.0048C10.9872 12.2218 10.4592 12.2102 10.0173 11.974C9.72991 11.8203 9.47949 11.505 8.97876 10.8745L5.70979 6.75811" stroke="black" stroke-width="1.5" stroke-linecap="round"/>
</g>
<defs>
<clipPath id="clip0_2688_3551">
<rect width="24" height="24" fill="white"/>
</clipPath>
</defs>
</svg>
