<svg width="24" height="24" viewBox="0 0 24 24" fill="none" xmlns="http://www.w3.org/2000/svg">
<path d="M8.85484 12C8.85484 14.4211 11.4758 15.9343 13.5725 14.7238C14.5456 14.1619 15.1452 13.1236 15.1452 12C15.1452 9.57887 12.5242 8.06566 10.4275 9.27622C9.45438 9.83809 8.85484 10.8764 8.85484 12Z" stroke="black" stroke-width="1.5"/>
<path d="M13.8508 1.67587C13.4654 1.51631 12.977 1.51631 12 1.51631C11.023 1.51631 10.5346 1.51631 10.1492 1.67587C9.63551 1.88872 9.22726 2.29687 9.01451 2.81064C8.91734 3.04514 8.87929 3.31788 8.86444 3.71578C8.84259 4.30046 8.54272 4.84163 8.03605 5.13412C7.52938 5.42669 6.91078 5.41577 6.39347 5.14236C6.04157 4.95634 5.78627 4.85284 5.53461 4.81969C4.98328 4.74714 4.42572 4.89654 3.98451 5.23503C3.65369 5.48899 3.40941 5.91199 2.92095 6.75811C2.43249 7.60412 2.18821 8.02713 2.13377 8.44065C2.06123 8.99198 2.21063 9.54964 2.54911 9.99076C2.7036 10.1922 2.92076 10.3613 3.2578 10.5731C3.75326 10.8845 4.0721 11.4149 4.0721 12C4.072 12.5851 3.75326 13.1154 3.2578 13.4266C2.92076 13.6385 2.7035 13.8078 2.54902 14.0092C2.21044 14.4504 2.06104 15.0079 2.13368 15.5592C2.18811 15.9727 2.43239 16.3958 2.92085 17.2419C3.40931 18.0879 3.65359 18.511 3.98441 18.7649C4.42563 19.1034 4.98319 19.2528 5.53451 19.1802C5.78617 19.1471 6.04138 19.0436 6.39337 18.8576C6.91068 18.5842 7.52929 18.5733 8.03605 18.8658C8.54272 19.1584 8.84259 19.6995 8.86444 20.2843C8.87929 20.6821 8.91734 20.9549 9.01451 21.1894C9.22726 21.7031 9.63551 22.1114 10.1492 22.3241C10.5346 22.4837 11.0231 22.4837 12 22.4837C12.977 22.4837 13.4654 22.4837 13.8508 22.3241C14.3645 22.1114 14.7728 21.7031 14.9855 21.1894C15.0827 20.9549 15.1207 20.6821 15.1356 20.2842C15.1574 19.6995 15.4572 19.1584 15.9639 18.8658C16.4706 18.5732 17.0892 18.5842 17.6066 18.8576C17.9585 19.0436 18.2137 19.147 18.4653 19.1801C19.0166 19.2528 19.5743 19.1034 20.0154 18.7649C20.3463 18.5109 20.5906 18.0879 21.0791 17.2418C21.5675 16.3957 21.8118 15.9727 21.8662 15.5592C21.9388 15.0079 21.7894 14.4503 21.4509 14.009C21.2963 13.8077 21.0792 13.6384 20.7421 13.4266C20.2468 13.1154 19.9279 12.585 19.9279 11.9999C19.9279 11.4148 20.2468 10.8846 20.7421 10.5733C21.0793 10.3615 21.2965 10.1923 21.451 9.99076C21.7895 9.54964 21.9389 8.99208 21.8663 8.44075C21.8119 8.02723 21.5677 7.60422 21.0792 6.75811C20.5907 5.91209 20.3464 5.48899 20.0156 5.23512C19.5744 4.89664 19.0167 4.74724 18.4654 4.81978C18.2138 4.85294 17.9586 4.95634 17.6066 5.14236C17.0893 5.41577 16.4707 5.42669 15.9641 5.13421C15.4572 4.84163 15.1574 4.30037 15.1356 3.71569C15.1207 3.31788 15.0827 3.04514 14.9855 2.81064C14.7728 2.29687 14.3645 1.88872 13.8508 1.67587Z" stroke="black" stroke-width="1.5"/>
</svg>
