<svg width="24" height="24" viewBox="0 0 24 24" fill="none" xmlns="http://www.w3.org/2000/svg">
<path d="M16.1935 3.61506C18.4736 3.62771 19.7085 3.72882 20.514 4.53439C21.4353 5.45554 21.4353 6.93818 21.4353 9.90336V16.1936C21.4353 19.1588 21.4353 20.6415 20.514 21.5625C19.5929 22.4837 18.1102 22.4837 15.1451 22.4837H8.85494C5.88966 22.4837 4.40712 22.4837 3.48588 21.5625C2.56473 20.6415 2.56473 19.1588 2.56473 16.1936V9.90336C2.56473 6.93818 2.56473 5.45554 3.48588 4.53439C4.29145 3.72882 5.52636 3.62771 7.80652 3.61506" stroke="black" stroke-width="1.5"/>
<path d="M7.80652 14.0966H16.1935" stroke="black" stroke-width="1.5" stroke-linecap="round"/>
<path d="M6.75821 10.4274H17.2418" stroke="black" stroke-width="1.5" stroke-linecap="round"/>
<path d="M8.85493 17.7659H15.1451" stroke="black" stroke-width="1.5" stroke-linecap="round"/>
<path d="M7.80652 3.08884C7.80652 2.2203 8.51061 1.51631 9.37905 1.51631H14.6209C15.4894 1.51631 16.1935 2.2203 16.1935 3.08884V4.13716C16.1935 5.0057 15.4894 5.70969 14.6209 5.70969H9.37905C8.51061 5.70969 7.80652 5.0057 7.80652 4.13716V3.08884Z" stroke="black" stroke-width="1.5"/>
</svg>
