<svg width="24" height="24" viewBox="0 0 24 24" fill="none" xmlns="http://www.w3.org/2000/svg">
<path d="M22.4837 12.7863V11.7379C22.4837 7.78429 22.4837 5.80744 21.2555 4.57914C20.0273 3.35094 18.0503 3.35094 14.0967 3.35094H9.90326C5.94956 3.35094 3.97281 3.35094 2.74451 4.57914C1.51631 5.80744 1.51631 7.78419 1.51631 11.7379C1.51631 15.6915 1.51631 17.6684 2.74451 18.8966C3.97281 20.1248 5.94956 20.1248 9.90326 20.1248H13.0483" stroke="black" stroke-width="1.5" stroke-linecap="round"/>
<path d="M9.90326 15.9314H5.70979" stroke="black" stroke-width="1.5" stroke-linecap="round"/>
<path d="M1.51631 9.64116H22.4837" stroke="black" stroke-width="1.5" stroke-linecap="round"/>
<path d="M15.1452 16.9798C15.1452 19.4009 17.766 20.914 19.8627 19.7036C20.8359 19.1417 21.4354 18.1034 21.4354 16.9798C21.4354 14.5587 18.8144 13.0454 16.7177 14.256C15.7446 14.8179 15.1452 15.8561 15.1452 16.9798Z" stroke="black" stroke-width="1.5"/>
<path d="M20.9112 19.6007L21.9596 20.6491" stroke="black" stroke-width="1.5" stroke-linecap="round"/>
</svg>
