<svg width="24" height="24" viewBox="0 0 24 24" fill="none" xmlns="http://www.w3.org/2000/svg">
<g clip-path="url(#clip0_2688_3554)">
<path d="M1.51631 12C1.51631 7.05787 1.51631 4.58691 3.05156 3.05156C4.58691 1.51631 7.05787 1.51631 12 1.51631C16.942 1.51631 19.4131 1.51631 20.9483 3.05156C22.4837 4.58691 22.4837 7.05787 22.4837 12C22.4837 16.942 22.4837 19.4131 20.9483 20.9483C19.4132 22.4837 16.942 22.4837 12 22.4837C7.05787 22.4837 4.58691 22.4837 3.05156 20.9483C1.51631 19.4132 1.51631 16.942 1.51631 12Z" stroke="black" stroke-width="1.5"/>
<path d="M14.0967 7.80653C14.0933 9.42055 15.8384 10.4331 17.238 9.62908C17.8903 9.25428 18.2918 8.55882 18.2902 7.80653C18.2937 6.19241 16.5485 5.17993 15.149 5.98397C14.4967 6.35868 14.0951 7.05423 14.0967 7.80653Z" stroke="black" stroke-width="1.5"/>
<path d="M1.51631 12.5243L3.35257 10.9176C4.30794 10.0817 5.74783 10.1296 6.64541 11.0272L11.1427 15.5245C11.8631 16.2449 12.9972 16.3432 13.8309 15.7572L14.1435 15.5376C15.343 14.6945 16.9661 14.7922 18.0559 15.7731L21.4354 18.8145" stroke="black" stroke-width="1.5" stroke-linecap="round"/>
</g>
<defs>
<clipPath id="clip0_2688_3554">
<rect width="24" height="24" fill="white"/>
</clipPath>
</defs>
</svg>
